<?xml version="1.0" encoding="utf-8"?>
<!-- Generator: Adobe Illustrator 19.0.0, SVG Export Plug-In . SVG Version: 6.00 Build 0)  -->
<svg version="1.1" id="Layer_1" xmlns="http://www.w3.org/2000/svg" xmlns:xlink="http://www.w3.org/1999/xlink" x="0px" y="0px"
	 viewBox="0 0 811.2 207.9" style="enable-background:new 0 0 811.2 207.9;" xml:space="preserve">
<style type="text/css">
	.st0{fill:#F37622;}
	.st1{fill:#FFFFFF;}
</style>
<g id="XMLID_37_">
	<path id="XMLID_57_" class="st0" d="M270.3,125.9h-21.2v31.7h-21.5V74.3c0-11.9,4.1-21.9,12.4-30.2c8.3-8.3,18.3-12.4,30.2-12.4
		v21.4c-5.8,0-10.8,2.1-15,6.2c-4.1,4.1-6.2,9.1-6.2,14.9v33.3h21.2V125.9z"/>
	<path id="XMLID_53_" class="st0" d="M358.7,157.5h-21.5l-0.2-19.7c0-5.9-2-10.9-6-15c-4-4.1-9-6.1-15-6.1h-13.5v40.9h-21.5V31.7
		h35.2c11.9,0,21.9,4.1,30.1,12.4c8.2,8.3,12.3,18.3,12.3,30.2c0,12.7-4.8,23.3-14.3,31.8c9.5,8.5,14.3,19.1,14.3,31.8V157.5z
		 M302.5,53v42.3h13.5c5.9,0,10.9-2,15-6.1c4-4,6.1-9,6.2-15c0.1-6-1.9-11-6-15.1c-4.1-4.1-9.1-6.1-15-6.1H302.5z"/>
	<path id="XMLID_51_" class="st0" d="M397.4,102.4c-4.2,4.1-6.2,9-6.2,14.9v40.2h-21.5v-40.2c0-11.8,4.2-21.8,12.5-30.1
		c8.3-8.3,18.4-12.4,30.1-12.4c11.8,0,21.8,4.1,30.1,12.4c8.3,8.3,12.5,18.3,12.5,30.1v40.2h-21.5v-40.2c0-5.7-2.1-10.7-6.2-14.8
		c-4.2-4.1-9.1-6.2-14.8-6.2C406.5,96.3,401.5,98.4,397.4,102.4z"/>
	<path id="XMLID_47_" class="st0" d="M551,117.4c0,11.8-4.1,21.8-12.4,30.1c-8.3,8.3-18.3,12.5-30.1,12.5c-11.9,0-22-4.1-30.2-12.4
		c-8.3-8.3-12.4-18.3-12.4-30.2c0-11.7,4.2-21.7,12.5-30c8.3-8.3,18.4-12.4,30.1-12.4c7.5,0,14.5,1.8,21,5.4V31.7H551V117.4z
		 M529.5,117.4c0-5.7-2.1-10.7-6.2-14.8c-4.1-4.2-9.1-6.2-14.8-6.2c-5.8,0-10.8,2.1-15,6.1c-4.1,4.1-6.2,9.1-6.2,14.9
		c0,5.9,2.1,10.9,6.2,15c4.1,4.2,9.1,6.2,15,6.2c5.8,0,10.8-2.1,14.9-6.2C527.5,128.2,529.5,123.2,529.5,117.4z"/>
	<path id="XMLID_44_" class="st0" d="M619.1,157.9H558l34.5-62.5h-28.6V75h63.9l-33.7,62h25V157.9z"/>
	<path id="XMLID_41_" class="st0" d="M705.6,157.9h-77.3l59.4-105.8h-44.6V31.7h79.8L664.7,137h40.9V157.9z"/>
	<path id="XMLID_38_" class="st0" d="M802,158.4c0,11.9-4.1,21.9-12.4,30.1c-8.3,8.2-18.3,12.3-30.2,12.3v-21.5c5.8,0,10.8-2,15-6.1
		c4.1-4.1,6.2-9,6.2-14.9v-3.8c-6.6,3.7-13.6,5.6-21.2,5.6c-11.8,0-21.8-4.2-30.1-12.5c-8.3-8.3-12.5-18.3-12.5-30.1V75h21.8v42.6
		c0,5.8,2,10.8,6.1,15s9,6.2,14.8,6.2c5.8,0,10.8-2.1,14.9-6.2c4.1-4.1,6.2-9.1,6.2-15V75H802V158.4z"/>
</g>
<g id="XMLID_36_">
	<path id="XMLID_77_" class="st1" d="M37,88.2c-0.8-0.1-1.4-0.1-2.1-0.1c-3.9,0-7.8-0.3-11.6,0.2c-8.1,1.1-14.3,5.3-16.8,13.3
		c-3.1,10.1-1.4,19.7,5.3,28c4.3,5.3,10.3,7.2,16.9,7c3.7-0.1,7.5-0.7,11.2-1.1c-3.5,5.4-4.4,11.5-3.5,17.8
		c1.3,9.4,6.1,16.9,13,23.1c13.4,12.1,29.2,18.3,47.3,18.6c12.6,0.2,24.4-2.5,34.8-10c9.8-7,17.4-15.7,20.9-27.4
		c1.8-5.9,2.2-11.9,1.4-18.1c0.8,0.2,1.4,0.3,2,0.5c10.6,2.7,20-1,25.8-10.3c3.7-5.9,5-12.4,5.1-19.3c0.1-12.7-8.8-21-17.8-24.1
		c-3.2-1.1-6.4-1.5-9.7-0.8c-2.1,0.4-4.2,1-6.3,1.5c-0.1-0.2-0.1-0.3-0.1-0.4c0-0.5,0-1,0-1.5c0.2-12.1-1-24.1-5.6-35.5
		C141,34,130.2,23.1,114,18c-1.1-0.4-2.3-0.6-3.5-1c0.5-2.5,1.9-4,3.9-4.9c1.9-0.9,4-1.4,6-2.1c-2-1.9-5.2-3.3-8.3-3.4
		c-6.3-0.3-11.1,2.9-15.7,7.2c-0.7-3.4,0.8-6.2,1.8-9.1c-5.5-0.4-10.3,1.3-14.4,4.5c-3.9,3.1-7.3,6.9-10.9,10.3
		c-1.4-2.6-1.2-5.5-0.2-8.8c-4.1,2.7-5.3,6-4.4,12c-0.5,0.3-1.1,0.6-1.7,0.8c-10.7,5.2-19.2,12.8-24.5,23.5c-5,10.1-6.7,20.9-6,32.1
		C36.3,82.1,36.7,85,37,88.2z"/>
	<path id="XMLID_72_" d="M37,88.2c-0.3-3.2-0.7-6.1-0.9-9c-0.6-11.2,1-22,6-32.1c5.4-10.7,13.8-18.3,24.5-23.5
		c0.6-0.3,1.1-0.6,1.7-0.8c-0.9-6,0.3-9.3,4.4-12c-1,3.2-1.2,6.2,0.2,8.8c3.6-3.4,7-7.2,10.9-10.3c4-3.3,8.9-4.9,14.4-4.5
		c-1,2.9-2.5,5.7-1.8,9.1c4.6-4.2,9.4-7.4,15.7-7.2c3.1,0.1,6.3,1.5,8.3,3.4c-2,0.7-4.1,1.2-6,2.1c-2,0.9-3.4,2.5-3.9,4.9
		c1.2,0.3,2.4,0.6,3.5,1c16.2,5.1,27,16,33.3,31.5c4.6,11.4,5.8,23.3,5.6,35.5c0,0.5,0,1,0,1.5c0,0.1,0.1,0.2,0.1,0.4
		c2.1-0.5,4.2-1.1,6.3-1.5c3.3-0.7,6.6-0.3,9.7,0.8c9,3.1,17.9,11.4,17.8,24.1c0,7-1.4,13.4-5.1,19.3c-5.8,9.3-15.2,13-25.8,10.3
		c-0.6-0.2-1.2-0.3-2-0.5c0.7,6.3,0.3,12.3-1.4,18.1c-3.5,11.8-11.1,20.4-20.9,27.4c-10.5,7.5-22.2,10.2-34.8,10
		c-18.1-0.2-33.9-6.4-47.3-18.6c-6.9-6.2-11.7-13.8-13-23.1c-0.9-6.4,0-12.5,3.5-17.8c-3.7,0.4-7.4,1-11.2,1.1
		c-6.6,0.2-12.6-1.7-16.9-7c-6.7-8.3-8.5-17.9-5.3-28c2.5-8,8.7-12.1,16.8-13.3c3.8-0.5,7.7-0.2,11.6-0.2
		C35.5,88.1,36.2,88.2,37,88.2z M60,120.4c-6,3.1-9.7,8.4-13.2,13.7c-0.9,1.4-1.8,2.9-2.5,4.4c-0.5,1-0.9,2-1.1,3.1
		c-2.7,14.4,1.8,26.3,13,35.4c15.6,12.7,43.5,18.8,66.5,6.3c9.6-5.2,17.7-12,22.7-21.9c3.3-6.4,3.7-13,0.8-19.6
		c-1.7-3.8-3.9-7.6-6.5-10.9c-3.3-4.2-7.3-7.9-11.1-11.9c2.6-2.1,5.4-4.4,8.2-6.5c0.9-0.7,1.1-1.3,0.8-2.4c-2.3-9-4.5-18.1-7-27.1
		c-0.8-2.9-2.2-5.7-3.8-8.2c-2.4-3.8-6-5.9-10.6-6.3c-6-0.5-11.3,1.6-16.3,4.5c-2.7,1.5-4.7,1.2-6.6-1.2c-5.8-7.2-13-8.4-20.4-3.4
		c-4.8,3.3-8.9,7.5-10.9,13c-3.2,8.9-5.8,18-8.6,27c-0.2,0.7,0.1,1.6,0.5,2.3C56,113.8,58,117.1,60,120.4z M162.2,94.3
		c-3.7-0.1-6.7,0.9-9.5,2.6c-0.6,0.3-1.1,1.1-1.2,1.7c-1.6,8-3.1,16-4.8,24c-0.2,1.1-0.2,1.8,0.9,2.3c2.9,1.3,5.7,3.1,8.8,4
		c9.2,2.8,17.3-1.5,20.3-10.7c0.5-1.6,0.8-3.2,1-4.9C179,103.5,171.2,94.3,162.2,94.3z M45.3,122.2c-1.5-3.8-3.3-7.4-4.5-11.2
		c-1.2-3.8-2.1-7.8-3-11.8c-0.7-3.2-0.5-3.2-3.7-3.7c-7.9-1.1-15,2.4-18.1,8.9c-3.8,8-0.6,17.8,7.3,22.7
		C30.9,131.9,40.2,128.1,45.3,122.2z"/>
	<path id="XMLID_64_" class="st1" d="M60,120.4c-2-3.3-4-6.6-5.9-9.9c-0.4-0.7-0.7-1.6-0.5-2.3c2.8-9,5.5-18.1,8.6-27
		c2-5.5,6.1-9.7,10.9-13c7.4-5.1,14.6-3.8,20.4,3.4c1.9,2.4,3.9,2.7,6.6,1.2c5.1-2.9,10.3-5,16.3-4.5c4.6,0.4,8.2,2.5,10.6,6.3
		c1.6,2.5,3,5.3,3.8,8.2c2.5,9,4.6,18.1,7,27.1c0.3,1.1,0.1,1.7-0.8,2.4c-2.9,2.2-5.6,4.5-8.2,6.5c3.8,4,7.7,7.7,11.1,11.9
		c2.6,3.3,4.7,7.1,6.5,10.9c3,6.5,2.5,13.2-0.8,19.6c-5.1,9.9-13.2,16.7-22.7,21.9c-23,12.5-50.9,6.4-66.5-6.3
		c-11.3-9.2-15.7-21.1-13-35.4c0.2-1.1,0.6-2.1,1.1-3.1c0.8-1.5,1.6-2.9,2.5-4.4C50.3,128.8,54,123.5,60,120.4z M59.4,153
		c3.9,6.7,8.4,12.4,14.2,17c11.6,9.1,24,10.3,37,3.5c10.2-5.3,17.2-14,22.6-23.9c0.1-0.1,0-0.3-0.1-0.4C109.6,167,85,165,59.4,153z
		 M119.9,115.2c6.3-5.7,8.2-12.6,6.5-20.5c-1.6-7-7.2-12.4-13.3-13.2c-7.5-0.9-14.1,3.6-16.8,11.4c-0.2,0.7-0.5,1.3-0.7,1.9
		c-1.3-2.4-2.4-4.9-3.9-7c-4.8-6.6-12.9-8.3-19.5-4.3c-3.4,2.1-5.9,5.1-7.2,8.8c-3.5,9.6-1.9,18.2,5.6,25.5
		c-0.5,0.2-0.9,0.5-1.4,0.7c0,0.1,0.1,0.3,0.1,0.4c17.5-1,35.1-2,52.3-3C121.3,115.9,120.7,115.6,119.9,115.2z M83.8,128.7
		c0,2.9,3.5,6.7,6.5,7c2.4,0.3,3.6-0.9,3.1-3.3c-0.7-3.3-2.9-5.4-6.1-6.4C85,125.4,83.7,126.4,83.8,128.7z M98.4,135.8
		c3.3,0,7.4-4.1,7.3-7.2c0-1.4-0.5-2.7-2.3-2.8c-3.4-0.1-7.6,4.4-7.3,7.7C96.2,135.1,96.9,135.9,98.4,135.8z M76.9,77.9
		c-3.1-1.5-6-2-8.8-0.1c-3.7,2.5-5,6.4-6.1,10.9C70,80.4,70,80.4,76.9,77.9z M128.3,90.4c1-10-5.3-14.6-12.3-13.1
		C121.7,80,126.3,83.6,128.3,90.4z"/>
	<path id="XMLID_22_" class="st1" d="M162.2,94.3c9,0,16.8,9.2,15.5,19.1c-0.2,1.7-0.5,3.3-1,4.9c-3,9.2-11.1,13.5-20.3,10.7
		c-3-0.9-5.8-2.6-8.8-4c-1.1-0.5-1.1-1.2-0.9-2.3c1.6-8,3.1-16,4.8-24c0.1-0.6,0.6-1.4,1.2-1.7C155.5,95.2,158.5,94.2,162.2,94.3z"
		/>
	<path id="XMLID_21_" class="st1" d="M45.3,122.2c-5.1,5.8-14.4,9.7-21.9,5c-7.9-4.9-11.1-14.7-7.3-22.7c3.1-6.5,10.2-10,18.1-8.9
		c3.1,0.5,3,0.5,3.7,3.7c0.8,4,1.7,7.9,3,11.8C42,114.8,43.7,118.4,45.3,122.2z"/>
	<path id="XMLID_20_" d="M59.4,153c25.6,12,50.2,13.9,73.8-3.8c0,0.1,0.1,0.3,0.1,0.4c-5.5,10-12.4,18.6-22.6,23.9
		c-13,6.8-25.5,5.5-37-3.5C67.8,165.4,63.3,159.7,59.4,153z"/>
	<path id="XMLID_56_" d="M119.9,115.2c0.8,0.4,1.5,0.6,1.7,0.7c-17.2,1-34.8,2-52.3,3c0-0.1-0.1-0.3-0.1-0.4c0.5-0.2,1-0.5,1.4-0.7
		c-7.5-7.3-9.1-15.9-5.6-25.5c1.4-3.7,3.8-6.7,7.2-8.8c6.6-4,14.7-2.3,19.5,4.3c1.5,2.1,2.6,4.6,3.9,7c0.2-0.6,0.4-1.2,0.7-1.9
		c2.7-7.8,9.3-12.3,16.8-11.4c6.2,0.7,11.8,6.1,13.3,13.2C128.1,102.7,126.2,109.5,119.9,115.2z M92.7,101.6
		c0-5.4-1.9-10.3-5.2-13.5c-4.7-4.5-11.1-4.5-15.8,0c-3.5,3.4-5.1,7.7-5.2,12.5c-0.1,6.1,1.8,11.4,7.1,15.1c0.8,0.6,2.1,0.8,3,0.7
		c3.1-0.4,6.1-1,9.1-1.7c1-0.2,2.2-0.9,2.8-1.7C91.5,109.6,92.6,105.5,92.7,101.6z M98.5,98.4c0,5.9,1.7,10.2,4.6,13
		c1.2,1.2,2.5,2.1,4.4,2c1.6,0,3.3,0,4.8,0.4c2.3,0.6,4-0.2,5.7-1.6c7.5-6,7.6-19,0.1-25.1c-4.1-3.4-9.5-3.5-13.7-0.2
		C100.2,90.2,98.6,94.6,98.5,98.4z M99.8,113.3c-1.5-2.7-2.8-5.1-4.1-7.4c-1,2.5-2,5.1-3.1,7.8C95,113.6,97.4,113.5,99.8,113.3z"/>
	<path id="XMLID_15_" d="M83.8,128.7c0-2.3,1.3-3.4,3.5-2.7c3.1,1,5.4,3.1,6.1,6.4c0.5,2.4-0.7,3.6-3.1,3.3
		C87.3,135.4,83.8,131.6,83.8,128.7z"/>
	<path id="XMLID_14_" d="M98.4,135.8c-1.5,0.1-2.2-0.7-2.4-2.3c-0.3-3.4,3.9-7.8,7.3-7.7c1.8,0,2.3,1.3,2.3,2.8
		C105.8,131.8,101.7,135.8,98.4,135.8z"/>
	<path id="XMLID_13_" d="M76.9,77.9C70,80.4,70,80.4,62,88.6c1.1-4.4,2.4-8.4,6.1-10.9C70.9,75.9,73.8,76.4,76.9,77.9z"/>
	<path id="XMLID_12_" d="M128.3,90.4c-2-6.8-6.6-10.4-12.3-13.1C122.9,75.7,129.3,80.3,128.3,90.4z"/>
	<path id="XMLID_49_" class="st1" d="M92.7,101.6c-0.2,4-1.2,8.1-4.1,11.4c-0.7,0.8-1.8,1.4-2.8,1.7c-3,0.7-6,1.3-9.1,1.7
		c-1,0.1-2.2-0.1-3-0.7c-5.3-3.6-7.1-9-7.1-15.1c0.1-4.8,1.6-9.1,5.2-12.5c4.7-4.5,11.1-4.5,15.8,0C90.8,91.2,92.7,96.1,92.7,101.6z
		 M88.5,102.9c0-5-3.9-9-8.9-9c-5.1,0-9,3.9-9,8.9c0,5,3.9,9,8.9,9C84.6,111.8,88.5,107.9,88.5,102.9z"/>
	<path id="XMLID_46_" class="st1" d="M98.5,98.4c0.1-3.8,1.7-8.2,5.9-11.4c4.2-3.3,9.6-3.1,13.7,0.2c7.5,6.1,7.4,19.1-0.1,25.1
		c-1.7,1.3-3.4,2.1-5.7,1.6c-1.5-0.4-3.2-0.5-4.8-0.4c-1.9,0.1-3.2-0.8-4.4-2C100.1,108.6,98.5,104.3,98.5,98.4z M119.9,101.9
		c0-5-3.9-9-8.9-9c-5,0-9,4-9.1,8.9c0,5,3.9,9,8.9,9C115.8,110.8,119.8,106.9,119.9,101.9z"/>
	<path id="XMLID_7_" class="st1" d="M99.8,113.3c-2.4,0.2-4.8,0.3-7.2,0.5c1.1-2.8,2.1-5.4,3.1-7.8C97,108.2,98.3,110.7,99.8,113.3z
		"/>
	<path id="XMLID_42_" d="M88.5,102.9c0,5-4,8.9-9,8.9c-5,0-9-4-8.9-9c0-5,4-8.9,9-8.9C84.7,94,88.6,97.9,88.5,102.9z M80.6,102.1
		c0,0.1,0.1,0.2,0.1,0.3c0.6-0.3,1.4-0.5,1.8-1c0.1-0.2-0.5-1.5-0.8-1.5c-1.5-0.1-3.1,0-4.6,0.2c-0.2,0-0.4,1.1-0.5,1.6
		c0,0.2,0.8,0.4,1.2,0.4C78.8,102.1,79.7,102.1,80.6,102.1z"/>
	<path id="XMLID_39_" d="M119.9,101.9c0,5-4,8.9-9.1,8.9c-5,0-9-4-8.9-9c0-4.9,4.1-8.9,9.1-8.9C115.9,92.9,119.9,96.9,119.9,101.9z
		 M111.1,101c0.4,0,0.8,0.2,1.1,0c0.6-0.2,1.1-0.5,1.7-0.8c-0.4-0.5-0.7-1.5-1.1-1.6c-1.3-0.2-2.7-0.1-4.1,0.2
		c-0.4,0.1-0.5,1.1-0.8,1.7c0.5,0.2,1,0.4,1.4,0.5C109.9,101,110.5,101,111.1,101z"/>
	<path id="XMLID_2_" class="st1" d="M80.6,102.1c-0.9,0-1.8,0.1-2.6,0c-0.4,0-1.2-0.3-1.2-0.4c0-0.6,0.2-1.6,0.5-1.6
		c1.5-0.2,3.1-0.3,4.6-0.2c0.3,0,0.9,1.3,0.8,1.5c-0.4,0.5-1.2,0.7-1.8,1C80.7,102.3,80.6,102.2,80.6,102.1z"/>
	<path id="XMLID_1_" class="st1" d="M111.1,101c-0.6,0-1.1,0.1-1.7,0c-0.5-0.1-1-0.3-1.4-0.5c0.3-0.6,0.4-1.6,0.8-1.7
		c1.3-0.2,2.7-0.3,4.1-0.2c0.4,0.1,0.8,1,1.1,1.6c-0.6,0.3-1.1,0.6-1.7,0.8C111.9,101.1,111.4,101,111.1,101z"/>
</g>
</svg>
